<svg fill="none" height="68" viewBox="0 0 68 68" width="68" xmlns="http://www.w3.org/2000/svg"><g fill="#d1bdf1"><path clip-rule="evenodd" d="m55.4929.0236271.9866.4410399c.5616.248085 1.2446.689123 1.5785 1.033683.334.317.7741.93721 1.3813 2.10873l.0455 7.41502c.0304 6.9739.0456 7.4012.2884 7.346.1518-.0275.8197-.2756 1.4875-.5513.9866-.3997 1.3964-.4961 2.2009-.4961.7893.0137 1.1384.0827 1.7152.3859.4098.2067.9107.5788 1.108.8269.1973.2343.4706.7029.592 1.0337.1366.317.2277.951.2277 1.4058 0 .5789-.1063 1.0337-.3643 1.5161-.1973.3859-.592.8821-.8652 1.1164-.2884.2343-.8045.5788-1.8062 1.0888l.8044.4824c.4705.2894.9714.758 1.2447 1.1577.3491.5375.4705.8821.516 1.585.0456.7305-.0151 1.0612-.3035 1.6539-.2429.5099-.6224.9648-1.9581 2.0122l.5616.3446c.3188.193.7741.5926 1.0322.8959.258.3032.5616.8958.683 1.3093.1518.5926.167.9234.0304 1.5161-.0911.4134-.3795 1.0199-.6375 1.3507-.2429.317-.759.7856-1.8215 1.4747l.6527.317c.3491.1792.8045.4548.9866.6202.1973.1654.5313.5926.7286.9648.1973.3583.4098.9096.4554 1.2404.0607.3721 0 .8683-.167 1.4058-.2125.6478-.425.9786-1.0473 1.5161-.6831.6064-1.0322.7856-2.8991 1.4334-1.6241.565-2.3375.7442-3.0358.758-.9107.0276-.9107.0276-1.8973.9234-.7285.6754-1.2143.9786-1.8518 1.1991-.6982.2481-1.2142.3032-4.1437.3032l-5.7679 3.4594c-3.1723 1.8882-6.0107 3.5008-6.2991 3.5697s-1.0018.1929-1.5937.2619c-.7438.0964-1.4723.0964-2.4286-.0138-1.2902-.1516-1.4116-.1379-2.0491.1516-.3795.1654-.85.4272-1.442.8545l.8652.7856c.4857.4273.8804.8821.8804.9923 0 .1103-1.9277 1.9571-4.2804 4.0934-2.3679 2.1501-4.4018 3.9005-4.5232 3.9005s-4.7661-4.1072-10.2911-9.124c-8.16605-7.415-10.06337-9.193-9.98748-9.4135.04554-.1516 2.01875-1.9984 4.37143-4.0934 2.36785-2.1087 4.35625-3.8315 4.44735-3.8315.0759 0 .4857.3032.9107.6891.4098.3859.8196.6891.9107.6891.0911-.0137.683-.4272 1.3357-.9372.8348-.6477 1.1839-1.0199 1.1688-1.2266 0-.1792-.1215-.9786-.2581-1.7917-.1518-.9235-.258-2.3293-.258-3.6937 0-1.6677.0607-2.4395.258-3.17.1518-.5237.6224-1.6401 1.0474-2.4809.425-.8407 1.0928-2.4119 1.5026-3.5145.3947-1.1026 1.2902-3.7626 1.9732-5.9265.6831-2.1638 1.3965-4.2036 1.5786-4.5482.1822-.3446.6072-.9234.9411-1.3093.3643-.4273.9259-.8408 2.3071-1.5161l.0456-4.27258c.0455-3.96935.0607-4.31392.3642-4.89278.167-.34456.6072-.92343.9867-1.29556.3642-.35834.941-.799381 1.275-.950988.3339-.151608.8803-.358345 1.2142-.454822.4706-.13782537 3.1572-.1791728 24.2858-.1240429zm-24.7715 1.7503729c-.2277.11026-.6678.45483-.9562.75804-.2884.30322-.6223.79939-.7134 1.08882-.1063.28943-.1973.64777-.1973.7856 0 .22052.7893.2343 14.5714.2343h14.5714c-.1366-.79938-.3339-1.29555-.5464-1.61255-.1973-.33078-.6223-.75804-.9259-.96477-.3188-.22052-.8045-.45483-1.108-.5513-.3947-.12405-3.4304-.16539-11.9911-.16539-6.2991.01378-11.642.05513-11.8697.11026-.2276.06891-.6071.20673-.8348.31699zm-1.8821 9.9647c1.1232.4135 1.7.7581 1.9884 1.0337.3036.2619.7437.8545.9714 1.3094.3188.5788.4705 1.1164.5161 1.7917.0455.6064-.0304 1.3782-.1822 2.0674-.1366.6064-.683 2.4395-1.2294 4.0658-.5313 1.6263-1.1081 3.4594-1.275 4.0658-.167.6065-.3795 1.6264-.4857 2.2741-.0911.6478-.1367 1.6126-.0911 2.1363.0455.5238.3036 1.5575.5616 2.2741.258.7167 1.0018 2.3017 1.6696 3.5146.6527 1.2128 1.3358 2.6738 1.5027 3.2389.1822.565.3188 1.1715.3188 1.3507v.3032h23.2232c.5009-.5927.8348-.8821 1.0777-1.0337l.425-.2757c-1.0474-.7994-1.5331-1.3644-1.7608-1.7503-.3187-.5927-.4098-.9235-.4098-1.6953 0-.758.0911-1.1164.3947-1.6539.2125-.3721.683-.9234 1.0473-1.1991l.6678-.5237c-1.1535-.9096-1.6241-1.4196-1.791-1.7228-.167-.3032-.334-.8959-.3795-1.3094-.0455-.4548 0-1.0336.1366-1.4471.1063-.3721.3947-.9234.6223-1.1991.2429-.2894.6983-.6891 1.0322-.8959l.6223-.3859-.0152-19.91566h-29.1428zm-2.7322 2.6463c-.2276.2894-.516.7029-.6375.9372-.1366.2343-.4098.9372-.6223 1.585-.1973.6478-.9259 2.8805-1.5937 4.9617-.6679 2.0811-1.4116 4.2863-1.6545 4.8928-.258.6064-.7893 1.7779-1.2143 2.6186-.4098.8408-.85 1.8607-.9562 2.2741-.1518.4962-.2125 1.5023-.2125 2.8944.0152 1.4747.1214 2.7565.3643 4.1347l.3339 1.9985c-1.1384.9648-1.8063 1.5023-2.2161 1.8331l-.7589.5788 14.6018 13.3001c1.1535-.8131 1.8214-1.1439 2.2464-1.268.6375-.1929.9563-.1929 2.125-.0689.8955.1103 1.7.1103 2.3527.0276.5312-.0689 1.1232-.1654 1.2902-.2205.1669-.0552 2.3375-1.3094 4.8419-2.7979l4.5384-2.7014c-12.7955-.0551-16.5902-.1378-16.6661-.1929-.091-.0689-.2125-1.3231-.2732-2.7979-.0759-1.4609-.2276-3.3353-.3491-4.176-.1062-.8408-.3491-1.9434-.5312-2.4809-.1822-.5375-.8045-1.8331-1.3965-2.8943-.5767-1.0613-1.3357-2.6738-1.6848-3.5835-.5919-1.5987-.6223-1.709-.6071-3.3767 0-1.1026.0911-2.15.2732-2.8943.1366-.6478.4402-1.7366.6375-2.4119.2125-.6754.6375-2.0123.9714-2.9633.3188-.951.759-2.343.9715-3.101.2125-.7581.3946-1.7504.3946-2.2052 0-.634-.1063-1.0062-.425-1.585-.258-.4686-.6223-.8821-.9411-1.0751-.3187-.1791-.7589-.3032-1.0625-.3032-.3035.0138-.8044.1379-1.1384.2757-.3187.1516-.7741.4962-1.0018.7856zm34.8956 5.0444-1.3206.5513c-.0151 4.0245.0152 5.196.0608 5.196.0303 0 1.108-.4962 2.383-1.1164s2.4741-1.2542 2.6714-1.4196c.1973-.1516.4554-.4548.5768-.6753.1063-.2068.2125-.6892.2125-1.0613 0-.3859-.1214-.9234-.2732-1.1991-.1366-.2756-.4705-.6202-.7134-.758-.2732-.1516-.7286-.2481-1.1384-.2343-.3795 0-.7893.0413-.9107.0827-.1366.0413-.8197.317-1.5482.634zm-2.8384 8.4486c-.2884.2206-.6072.5651-.7286.7856-.1062.2068-.1973.6203-.1973.9235s.1214.7856.258 1.0612c.1518.2757.5009.6478.8045.8132.2884.1792.8045.3583 1.1384.3997.5312.0827.8196 0 2.4589-.7443 1.0322-.4686 2.0795-1.0199 2.3527-1.2266.2732-.2205.592-.6064.7134-.8683.1214-.2757.1821-.7305.1366-1.0888-.0304-.3584-.2277-.827-.4402-1.0888-.1973-.2619-.6375-.5927-.9714-.7305s-.7893-.2481-1.017-.2481c-.2125 0-1.2143.3721-2.2009.8132-.9866.441-2.0339.9923-2.3071 1.199zm-.2125 7.0015c-.2277.193-.4857.6203-.5768.951-.0911.317-.1214.7719-.0759.9924.0607.2205.2429.6202.425.8683.1973.2481.6223.5651.9563.7167.3339.1516.8196.2756 1.0928.2756.3188 0 1.2295-.3445 2.4893-.9234 1.3813-.6478 2.1402-1.0888 2.4286-1.4196.2428-.2619.4705-.7305.5312-1.0337.0759-.4273.0152-.7029-.258-1.2404-.2277-.4135-.5768-.8132-.8955-1.0061-.3795-.2206-.759-.3033-1.2902-.3033-.6375 0-1.0625.1517-2.5804.8821-1.0018.4824-2.0187 1.0337-2.2464 1.2404zm.1518 6.6983c-.2277.2206-.4857.6478-.592.9373-.0911.2756-.1214.7442-.0759 1.0336.0607.2895.3036.7167.592 1.0062.2732.2618.7741.5788 1.108.7029.3643.124.7741.1791 1.0625.124.2429-.0551 1.275-.3859 2.2768-.7305 1.3205-.4686 1.9732-.7718 2.3679-1.1301.3744-.3308.597-.68.6678-1.0475.0607-.317.0304-.758-.0607-1.0337-.0759-.2619-.3188-.6615-.5009-.8821-.1973-.2205-.5768-.4823-.85-.5926-.2732-.0965-.7741-.1792-1.1384-.1654-.3795 0-1.4116.2756-2.5348.6891-1.3205.4686-2.0339.7994-2.3223 1.0888zm-51.18217 7.1669 18.44197 16.7458 6.9062-6.2711c-14.2375-12.9279-18.4116-16.6768-18.4419-16.6768-.0456 0-1.6241 1.392-3.4911 3.1011zm26.54737-5.003c.0455.5926.1214 1.7366.1669 2.5498l.0759 1.4885c20.8705 0 21.508-.0276 22.0848-.2619.334-.1378.8349-.4824 1.1384-.7443l.5313-.4961c-.7741-.7581-1.1384-1.2405-1.3206-1.5712-.1669-.317-.3642-.9097-.4098-1.3094l-.0911-.7167h-22.2517zm-29.82594-40.80997c.37946.02757 1.00178.23431 1.36607.44104.37946.20674.85.59265 1.03214.85452.19732.26186.425.71669.51607 1.0199.09107.30322.10625.79939.06072 1.1026-.04554.30322-.24286.79939-.44018 1.1026-.18214.30322-.6375.74426-1.01697.97856-.36428.2343-.97142.4686-1.32053.50995-.34911.05513-.94107.04135-1.29018-.04135-.36429-.06891-.94107-.35834-1.30536-.64777-.379461-.28944-.804461-.74426-.956247-1.03369-.166964-.317-.288393-.81317-.288393-1.28177 0-.45483.121429-.951.288393-1.26799.151786-.28944.576786-.74426.956247-1.03369.36429-.28943.89554-.57886 1.18393-.64778.30357-.06891.85-.09647 1.21429-.05513zm-1.82143 2.06738c-.19732.24808-.30357.60643-.30357.97855 0 .44104.10625.68913.425 1.00613.22768.2343.6375.48238.91071.5513.31875.08269.68304.08269 1.01697-.01379.30357-.06891.68303-.30321.85-.50995.16696-.20674.3491-.56508.39464-.79938.04553-.23431-.03036-.62022-.16697-.92343-.12142-.28943-.39464-.60643-.57678-.71669s-.54643-.2343-.80447-.27565c-.24285-.04135-.66785.01378-.95625.11026-.27321.11026-.6375.37213-.78928.59265zm62.88477 56.96299c.5617 0 1.0777.0965 1.442.2757.3188.1378.7589.4273.9714.6478.2277.2205.5161.6202.6527.9096.1215.2895.2277.8408.2277 1.2404 0 .5238-.1214.9097-.4098 1.3921-.2581.4135-.6831.8269-1.1081 1.0612-.3642.2343-.9562.4411-1.2901.4824-.334.0551-.8804.0276-1.2143-.0551s-.8348-.2894-1.1232-.4686c-.2884-.1654-.6831-.5238-.8804-.7994-.1973-.2619-.425-.6891-.5161-.9648-.091-.2618-.1214-.758-.0759-1.1026.0608-.3721.2884-.8821.6072-1.2818.2884-.3996.7893-.8131 1.1687-1.0061.4858-.2343.9107-.3308 1.5482-.3308zm-1.5937 2.2604c-.1518.2756-.2732.6202-.2732.7718s.1062.4686.2277.6891c.1366.2343.4553.5375.7285.6891.2732.1517.6527.2757.8349.2757.1821 0 .5919-.0965.8955-.2343s.6375-.4135.7589-.6202c.1063-.2068.1973-.634.1973-.9372 0-.4411-.091-.634-.5312-1.0337s-.6375-.4686-1.1688-.4686c-.3491 0-.8196.0827-1.0321.1929-.1973.0965-.4857.3997-.6375.6754z" fill-rule="evenodd"/><path d="m24.9083 67.0754c-.0456 0-4.5081-4.0244-9.942-8.9586-5.41874-4.9341-9.82052-8.9586-9.74463-8.9586.06071 0 4.52321 4.0383 9.94193 8.9586 5.4036 4.9342 9.7902 8.9586 9.7447 8.9586z"/><path d="m65.1615 4.2549c.1518-.20674.425-.44104.6072-.53752.1973-.09648.4402-.17917.5464-.17917.0911 0 .3946.15161.6375.34456.3339.24809.4554.46861.4554.79938 0 .24809-.1215.57887-.3036.75804-.167.16539-.4857.34456-.7134.38591-.3036.05513-.5464 0-.8045-.17917-.2125-.15161-.4401-.44104-.5312-.64778-.1214-.28943-.0911-.45482.1062-.74425z"/><path d="m.758861 57.6896c-.015179-.2067.136607-.5237.318749-.7305.24286-.2756.45536-.3583.92589-.3583.47054 0 .65268.0827.89554.3721.18214.2206.30357.5375.30357.7305s-.09107.441-.19732.5651c-.10625.124-.34911.2894-.56161.3859s-.53125.1378-.72857.0965c-.18214-.0414-.47054-.2205-.6375-.3997-.166964-.1654-.318749-.4686-.318749-.6616z"/><path clip-rule="evenodd" d="m39.3883 11.9454c.7893 0 1.3054.0552 1.4268.1654.1063.0965.1822.2895.1822.4135 0 .1378-.1063.3446-.2429.4548-.167.1516-.5616.2068-1.3661.2068-.7892 0-1.1839-.0552-1.3509-.2068-.1214-.1102-.2428-.317-.258-.4548s.0607-.317.1822-.4135c.1214-.0965.7133-.1654 1.4419-.1654zm12.2188 0 .1973.3446c.1518.2894.1366.3721-.1214.6202-.2884.2757-.4706.2894-4.4322.2757-4.1285 0-4.1437 0-4.3714-.317-.1214-.1654-.2277-.3446-.2428-.3997 0-.0552.1062-.193.2428-.3032.2125-.193.8348-.2206 8.7277-.2206zm-12.2188 3.4457c.7741 0 1.2902.0551 1.4116.1653.1063.0965.1822.317.1822.4824 0 .1792-.1366.3722-.3036.4549-.1669.0827-.7437.1378-1.2902.1378-.5464 0-1.1232-.0551-1.2901-.1378-.167-.0827-.3188-.2757-.334-.4549-.0151-.1791.0607-.3859.1822-.4824.1214-.0964.7134-.1653 1.4419-.1653zm7.8929 0c3.5062 0 4.2045.0275 4.4018.2067.1214.1103.2277.3032.2277.4135 0 .1102-.1063.3032-.2581.4134-.2125.1792-.8652.2068-4.4169.1792-3.9768-.0413-4.1741-.0551-4.3715-.317-.1821-.2343-.1669-.317.0304-.5926.2277-.3032.2428-.3032 4.3866-.3032zm-7.8777 3.4456c.7893 0 1.1839.0551 1.3509.2067.1214.1103.2277.317.2277.4548 0 .1241-.0759.317-.1822.4135-.1214.0965-.6223.1654-1.4116.1654-.7741 0-1.2901-.0551-1.4116-.1654-.1062-.0965-.1973-.2894-.1973-.4135 0-.124.1063-.3307.2429-.441.1821-.1654.5616-.2205 1.3812-.2205zm3.7036 0h4.1437c3.9616-.0138 4.1438 0 4.4322.2756.258.2481.2732.3308-.0759.9648h-4.2045c-4.0375.0138-4.2348 0-4.5232-.2619-.2884-.2756-.2884-.3032-.0303-.634zm-3.7339 3.4456c.5616 0 1.0473.0827 1.2598.2067.1821.1103.3339.317.3339.4549.0152.124-.0759.317-.1821.4134-.1063.1103-.6224.1654-1.3965.1654-.7892 0-1.2901-.0551-1.4116-.1654-.1062-.0964-.2125-.2756-.2125-.4134-.0151-.1241.1366-.3308.334-.4411.2276-.1378.7134-.2205 1.275-.2205zm7.8928.0138c3.6884-.0276 3.9768 0 4.3259.2481.3491.2343.3643.3032 0 .9785h-4.3259c-4.1741 0-4.3259-.0138-4.4777-.2756-.1012-.1838-.1012-.363 0-.5375.0911-.1379.2429-.2895.3491-.3308.1063-.0414 1.9581-.0827 4.1286-.0827zm-3.8402 22.2174c3.1572.0275 3.3697.0413 3.5518.3032.1822.2343.1822.3308-.0152.5926-.2125.3032-.2732.3032-3.5669.3032-2.7625 0-3.3697-.0275-3.567-.2067-.1214-.1103-.2277-.2894-.2277-.3997-.0151-.1102.0911-.3032.2277-.4135.2277-.1929.7134-.2205 3.5973-.1791zm-29.583 1.4747c.1366 0 .4857.0827.7589.1929.2732.0965.6831.3722.9107.6203.2277.2343.4554.634.5009.882.0608.2757-.0151.6616-.1821 1.0475-.1518.3308-.4857.7305-.7438.8959-.2428.1516-.7285.3032-1.0625.3307-.3794.0276-.7892-.0413-1.1232-.2067-.2884-.1378-.6526-.3997-.8044-.5926-.1518-.193-.3188-.5927-.3795-.8959-.0607-.4273 0-.6753.2732-1.1439.2429-.386.5768-.6754.9714-.8546.334-.1516.7286-.2756.8804-.2756zm-.6679 2.0398c.0152.1378.1063.317.2125.4135.1063.0964.334.1654.5313.1654.2125 0 .4098-.1241.5312-.3446.167-.2894.1518-.3721-.1214-.6202-.1669-.1516-.3794-.2757-.4705-.2757-.1063 0-.3036.0965-.4402.2206-.1366.124-.2429.317-.2429.441z" fill-rule="evenodd"/></g></svg>