<svg fill="none" height="160" viewBox="0 0 160 160" width="160" xmlns="http://www.w3.org/2000/svg"><circle cx="80" cy="80" fill="#ceb0ff" r="80"/><circle cx="80" cy="80" fill="#fff" r="60"/><g fill="#1a2257"><path clip-rule="evenodd" d="m107.065 50 .821.4103c.458.2227.975.5743 1.163.7853.188.2228.47.6682.951 1.5708v19.4584l-.329.6213c-.176.3282-.516.8088-.763 1.0433-.235.2344-.728.5626-1.08.715-.352.1641-.658.2931-.681.3048-.012.0117.058.6447.176 1.4183.129.9378.2 2.1686.2 3.6924 0 1.5825-.071 2.743-.212 3.7511-.117.8088-.387 2.1568-.599 2.9891-.211.8322-.575 2.0513-.822 2.696-.234.6447-.763 1.8638-1.174 2.6961-.411.8322-1.162 2.1568-1.679 2.9305-.505.7736-1.315 1.8872-1.808 2.4616s-1.409 1.559-2.0431 2.1803c-.6458.6214-1.5029 1.4064-1.9256 1.7464-.4227.352-1.3973 1.043-2.1722 1.559-.775.504-2.1018 1.254-2.9355 1.665-.8336.41-2.0548.937-2.7005 1.172-.6458.234-1.7496.586-2.4658.762s-1.7965.41-2.407.516c-.6106.105-1.8083.246-2.6419.316-.8806.07-2.1722.094-4.5793-.047l-.2935.563c-.1644.305-.5636.797-.8806 1.078-.3288.282-.8689.622-1.2094.75-.5871.211-.9746.223-22.274.165l-.5871-.293c-.3288-.153-.7984-.505-1.0567-.762-.2584-.258-.6106-.739-1.0568-1.641v-19.4589l.3053-.5861c.1761-.3283.4462-.7502.5988-.9378.1644-.1876.6575-.5392 1.1037-.7619s.8219-.4103.8454-.4103c.0118 0-.0587-.633-.1761-1.4066-.1292-.9378-.1996-2.1686-.1996-3.6925 0-1.5824.0704-2.7429.2113-3.751.1175-.8088.3875-2.1451.5989-2.9891.2113-.844.5753-2.0513.8219-2.696.2348-.6447.7632-1.8521 1.1742-2.6961.4109-.844 1.1624-2.1568 1.679-2.9305.5049-.7736 1.3151-1.8755 1.8082-2.4616.4932-.5861 1.409-1.559 2.0431-2.1803.6458-.6212 1.5029-1.4066 1.9256-1.7465.4227-.3517 1.3973-1.0433 2.1722-1.5473.775-.5158 2.0901-1.266 2.9355-1.6763.8336-.4103 2.1017-.9495 2.818-1.2073.7045-.2579 1.9491-.633 2.7593-.8323.8101-.1876 2.0782-.4454 2.818-.5509.9158-.1407 2.1722-.1993 6.4579-.2228l.27-.5157c.1409-.2931.5167-.7502.8454-1.0316.3171-.293.8454-.6212 1.1742-.7384.5636-.211 1.1037-.2228 22.0748-.2462zm-21.8987 3.1767c-.0704.1523-.1174 3.4931-.1174 9.3189 0 5.9313.047 9.1783.1174 9.3541.0705.1407.2818.3517.4697.4689.3288.1876 1.0568.1993 10.6262.1993 8.8998 0 10.3208-.0235 10.6258-.1758.2-.0938.435-.3517.529-.5861.152-.3517.176-1.6528.176-9.2604 0-8.1936-.012-8.8852-.211-9.2721-.118-.2461-.353-.4806-.587-.5861-.318-.1406-1.938-.1641-10.568-.1641-9.9687 0-10.1918 0-10.5675.2345-.1996.1289-.4345.3399-.4932.4689zm-7.7847 3.0594c-.3757.5392-1.0215 1.5473-1.4442 2.2389-.411.7033-1.0685 1.8989-1.456 2.6726-.3875.7736-.7045 1.4301-.7045 1.4652 0 .0352.411.1876.9041.34.5049.1524 1.3621.3751 1.9139.4806.5519.1055 1.6791.2227 2.5245.2579.8336.0351 1.9374.0351 2.4305-.0118l.9159-.0703v-8.4398c-.411-.0938-1.2681-.1055-2.1723-.1055-.9041.0117-1.773.0469-1.9373.0938-.1879.0586-.5402.4337-.9746 1.0784zm-5.8356.2579c-.6106.2227-1.5382.5978-2.0548.8322-.5166.2345-1.2798.6213-1.7026.8557l-.7632.422c.6341.5392 1.2447 1.0081 1.7613 1.3949.5166.3869 1.2916.9143 1.726 1.1605.4462.2462.8219.4454.8572.422.0234-.0117.3874-.7033.7984-1.5473s1.1272-2.1451 1.5851-2.907c.4697-.7503.8454-1.395.8454-1.4301 0-.0352-.0704-.0586-.1526-.0469-.0705 0-.5167.1055-.9628.2227-.458.1172-1.3268.3986-1.9374.6213zm-9.6047 6.2243c-.6575.6799-1.5617 1.7349-2.0078 2.321-.4345.5978-1.0333 1.4535-1.3034 1.9107-.2818.4454-.8454 1.5004-1.2446 2.3444-.4109.8322-.9276 2.0747-1.1389 2.7546-.2231.6799-.5401 1.8404-.7163 2.5788-.1644.7385-.3522 1.7935-.4227 2.3444-.0587.551-.1174 1.1722-.1174 1.3715v.3868h12.4462c.0822-.9494.1409-1.7114.1761-2.2857.0352-.5744.1527-1.6646.2466-2.4031.0939-.7384.3288-2.1099.5284-3.0477.1878-.9377.5049-2.274.7045-2.9891.2113-.715.5753-1.8872.8219-2.614.2583-.715.4579-1.348.4579-1.4066 0-.0469-.1996-.1758-.4344-.293-.2466-.129-.9511-.551-1.5617-.9495-.6105-.3986-1.6321-1.1605-2.2661-1.688-.6223-.5275-1.1624-.9612-1.1859-.9612-.0352 0-.4462.3048-.9159.6916-.4696.3751-1.3972 1.2425-2.0665 1.9341zm10.1096 4.1731c-.2231.6798-.5754 1.9458-.7985 2.8132-.2113.8674-.4814 2.0279-.5753 2.5789-.1057.5509-.2701 1.6059-.364 2.3443-.0939.7385-.2231 1.9693-.27 2.7313l-.0822 1.3714h20.0195c-.1056-1.77-.1761-2.6022-.2231-2.9891l-.0704-.7033c-4.3679-.1172-4.6262-.1406-5.0842-.3868-.27-.1407-.7045-.4572-.9745-.7033-.2583-.2345-.6223-.7268-.7867-1.0784-.317-.6448-.317-.6682-.3523-3.6339l-.0352-2.9891c-4.2622-.0117-5.1428-.0586-5.9765-.211-.6106-.1172-1.5616-.3399-2.1135-.4923s-1.1507-.3282-1.3268-.3985c-.2936-.1172-.3405-.0938-.4462.1992-.0705.1759-.317.8675-.5401 1.5474zm20.3248 9.401c.047.7267.1057 1.5707.1292 1.8755l.0587.5626h12.4464c0-.5509-.059-1.1136-.118-1.6176-.07-.4923-.176-1.1839-.234-1.5239l-.118-.6095h-12.2347zm-37.3972 5.3569c0 .1993.0587.7619.1291 1.266.0705.504.1762 1.1839.2349 1.5238l.1056.6096h12.2114c-.0939-1.9459-.1409-2.7899-.1761-3.1298l-.0587-.6213h-12.4462zm15.0998.9143c.0469.6916.1174 1.5239.1526 1.8404l.0705.5861c4.0508.1172 4.5557.1641 4.9315.3399.2583.1172.7045.3868.9745.6095.3288.2696.6341.6799.8807 1.1957l.3757.7854c.0587 5.3686.0939 6.0368.2113 6.0016.0822-.0352.7515-.0938 1.4912-.1289.7985-.0587 1.9374-.0352 2.7593.0468.775.0704 1.9961.2579 2.7006.422.7163.1524 1.5969.3869 1.9726.5158l.6693.2344c.1996-.4923.4462-1.1956.6693-1.8755.2231-.6681.6223-2.0982.8806-3.1649.2583-1.055.5988-2.8016.7515-3.8683.1644-1.0549.3287-2.5788.3757-3.3642l.0822-1.4418h-20.0313zm22.4266-.7619c-.0352.2813-.0939 1.0315-.1292 1.6762-.0352.6447-.1409 1.7466-.2465 2.4616-.094.7034-.2701 1.8404-.3993 2.5203-.1409.6798-.3992 1.8638-.5988 2.6374-.1879.7737-.6106 2.192-.9276 3.1649-.3287.9612-.5871 1.7818-.5871 1.8169 0 .0352.1996.1524.4462.2696.2349.129.9394.551 1.5499.9495.6223.3986 1.6321 1.1605 2.2662 1.688.6223.5275 1.1741.9612 1.1976.9612.0352 0 .4697-.3399.9746-.7502.4931-.422 1.3385-1.1957 1.8552-1.7349.5283-.5392 1.2328-1.3128 1.5851-1.7348.3405-.422.9858-1.3129 1.4328-1.9928.446-.6798 1.092-1.7817 1.432-2.4616.341-.6798.81-1.7348 1.057-2.3444.235-.6095.61-1.8051.834-2.6374.211-.8323.469-2.1217.575-2.8484.094-.7151.176-1.5004.176-1.7232v-.4102h-12.4344zm-39.957 6.5408c-.1174.3165-.1526 2.3913-.1526 9.2252 0 8.1583.0235 8.8503.2114 9.2373.1174.246.3639.48.587.586.3171.14 1.9374.164 10.5323.164 8.7945 0 10.2035-.024 10.5088-.176.1996-.094.4345-.293.5402-.434.1526-.234.1761-1.453.1761-9.3773-.0118-5.9547-.047-9.2017-.1292-9.3775-.0587-.1407-.27-.3517-.4697-.4689-.3287-.1876-1.045-.1993-10.6497-.1993-9.6986 0-10.3209.0117-10.6614.211-.1879.1055-.411.3868-.4932.6095zm24.9746 8.0765v8.44c.411.094 1.2446.117 2.1135.105.8806 0 1.7495-.047 1.9374-.082.2818-.058.5049-.293 1.045-1.078.3757-.539 1.0215-1.559 1.4325-2.251.4227-.691 1.0685-1.887 1.4559-2.6724.3875-.7737.7045-1.4301.7045-1.4653 0-.0234-.3287-.1641-.7279-.293-.3993-.1289-1.2329-.3399-1.8552-.4689-.8219-.1875-1.6439-.2579-3.1703-.2813-1.1272-.0235-2.2426-.0235-2.4892.0117zm8.6301 6.623c-.4227.703-.7514 1.301-.7397 1.313.0235.023.4579-.071.9746-.2.5166-.128 1.409-.398 1.9961-.597.5753-.211 1.5029-.586 2.0548-.833.5518-.257 1.3385-.656 1.7612-.89l.7632-.422c-.634-.528-1.2446-1.009-1.7612-1.395-.5167-.3872-1.2916-.903-1.7378-1.1609-.4344-.2461-.8102-.4454-.8337-.4454-.0234 0-.4109.7502-.8688 1.6643-.458.915-1.1742 2.251-1.6087 2.966z" fill-rule="evenodd"/><path d="m62.7045 90.5109c.0705-.1172.3171-.2813.5284-.3634.2114-.082.4227-.1524.4697-.1641.0587 0 .2818.0821.5049.1758.2348.0938.4931.3282.5871.5275.1056.1993.1761.6682.1761 1.8755h4.227l.3522.3517c.2701.2696.3523.4571.3523.8205 0 .3751-.0822.551-.3992.8792-.2231.2227-.4932.4102-.6223.4102-.1644 0-.2583.1759-.4345.844-.1174.4689-.3757 1.2308-.5753 1.6763-.1879.4571-.5636 1.1604-.8454 1.5824-.2701.422-.7163 1.0315-1.4677 1.9345l.3287.258c.1762.14.7867.527 1.3621.879.5753.34 1.1154.726 1.1976.855.094.129.1644.434.1644.68 0 .34-.0939.528-.4227.879-.3875.387-.4697.422-.8571.364-.2349-.047-.7398-.258-1.1272-.493-.3875-.222-1.1038-.703-2.4658-1.687l-.7045.515c-.3875.293-1.1272.774-1.6438 1.09-.6693.411-1.0685.575-1.3855.587-.3406 0-.5284-.083-.8807-.422-.4109-.399-.4344-.458-.3522-.915.0469-.258.1644-.562.2583-.656s.6106-.446 1.1507-.774c.5284-.328 1.1272-.738 1.679-1.184l-.5636-.633c-.3052-.351-.634-.8203-.7397-1.043-.1526-.34-.1644-.4924-.0587-.844.0822-.2931.2583-.5275.5049-.6799.2114-.1289.5049-.2344.6458-.2344.1526 0 .411.0703.5871.1641.1878.082.4696.3634.6458.6095.1761.2579.4344.5744.8571.9847l.5401-.6682c.2936-.3751.681-.9143.8454-1.2073.1644-.2931.4345-.8792.5989-1.3129.1761-.4454.3052-.8792.3052-.9729 0-.1524-.5049-.1759-7.7495-.1759l-.3522-.293c-.2349-.1876-.3758-.4454-.4227-.7268-.0587-.3282-.0118-.5509.1409-.8322.1291-.211.3053-.422.3992-.4689s1.1272-.1055 4.4031-.1993l.0587-.8908c.0353-.4924.1175-.9847.1996-1.1019z"/><path clip-rule="evenodd" d="m96.2858 55.0527c.364 0 .5871.0704.7985.2696.1996.1759 1.0567 2.1686 2.8767 6.6816 1.656 4.0909 2.583 6.5643 2.583 6.8221 0 .2931-.094.5041-.34.762-.282.2813-.447.3516-.858.3516-.375.0117-.575-.0586-.798-.2696-.176-.1758-.54-.9377-1.5264-3.4814l-5.3307.0586-.5636 1.348c-.3053.7385-.6575 1.5239-.7632 1.7349-.1174.211-.3875.4571-.5871.5509-.2113.0938-.5283.1524-.7045.1172-.1878-.0234-.4696-.1992-.6575-.3751-.1761-.1875-.3523-.4571-.3875-.6212-.047-.211.681-2.1451 2.548-6.8574 1.8199-4.5364 2.7123-6.6463 2.9119-6.8339.1996-.1875.4227-.2579.7984-.2579zm-1.5381 8.475c-.0705.1876.0587.1993 1.5146.1993.8689 0 1.5852-.0352 1.5852-.0938 0-.0469-.3288-.9026-.7163-1.8989-.3992-.9964-.7632-1.8638-.7984-1.9107-.0352-.0586-.3992.7033-.7984 1.6997-.3993.9846-.7515 1.8872-.7867 1.9927z" fill-rule="evenodd"/></g></svg>