<svg fill="none" height="160" viewBox="0 0 160 160" width="160" xmlns="http://www.w3.org/2000/svg" xmlns:xlink="http://www.w3.org/1999/xlink"><clipPath id="a"><path d="m0 0h160v160h-160z"/></clipPath><g clip-path="url(#a)"><circle cx="80" cy="80" fill="#ceb0ff" r="80"/><circle cx="80" cy="80" fill="#fff" r="60"/><g clip-rule="evenodd" fill="#03065d" fill-rule="evenodd"><path d="m110.116 46.0012c.601-.0125 1.126.075 1.551.2251.388.15.901.4752 1.226.7878.3.3001.663.7878.801 1.1004.125.3127.262.9504.3 1.4381.025.5502-.025 1.188-.15 1.7257-.113.4627-.363 1.2755-.576 1.8007-.2.5377-.638 1.4256-.963 1.9758-.338.5502-.913 1.4256-1.301 1.9383-.4.5127-1.213 1.4631-1.813 2.1134-.613.6502-1.539 1.5256-2.051 1.9507-.513.4252-1.289 1.0255-2.477 1.8758l.75 1.1254c.413.6128 1.151 1.9383 1.651 2.9387.501 1.0004 1.164 2.6136 1.489 3.6015.325.9754.725 2.4635.888 3.3013.175.8504.375 2.2134.463 3.0387.087.9254.125 2.3385.075 3.689-.05 1.4756-.175 2.7761-.388 4.0016-.175 1.0004-.5 2.4885-.738 3.3139-.238.8253-.65 2.0383-.9 2.6885-.263.6503-.851 1.9508-1.326 2.8762-.463.9254-1.301 2.3635-1.851 3.1888-.538.8253-1.439 2.0383-1.989 2.6886-.538.6498-1.601 1.7758-2.364 2.5008-.7506.725-1.9013 1.713-2.5517 2.201-.6504.5-1.651 1.188-2.2389 1.551-.5878.362-1.7135.988-2.5015 1.375-.788.4-2.0012.926-2.6891 1.188-.688.263-1.9888.65-2.8768.876-.8881.237-2.2139.512-2.9393.625-.7255.112-2.414.237-3.7523.275-1.8762.05-2.8268.025-4.1276-.138-.9255-.125-2.3389-.362-3.1269-.525-.788-.175-2.2264-.575-3.1895-.888-.9756-.325-2.6141-1.013-3.6897-1.55-1.0632-.538-2.5266-1.363-3.252-1.851-.7255-.475-1.7886-1.251-2.3765-1.726-.5753-.462-1.626-1.413-2.3139-2.101-.6879-.687-1.6385-1.7378-2.1013-2.313-.4753-.5878-1.2508-1.6507-1.7386-2.376-.4753-.7253-1.3008-2.1884-1.8386-3.2513-.5253-1.0629-1.2007-2.6386-1.4884-3.5014-.2877-.8629-.6629-2.1509-.838-2.8762-.1626-.7253-.3878-1.8757-.5003-2.5635-.1001-.6878-.2252-2.2384-.2752-3.4389-.0375-1.363-.0125-2.7761.075-3.7515.0876-.8628.2627-2.1509.4003-2.8762.1376-.7252.4252-1.9007.6254-2.626.2126-.7253.6003-1.8758.863-2.5635.2752-.6878.813-1.8633 1.2007-2.6261.3878-.7628 1.0507-1.9133 1.4759-2.5635.4253-.6503 1.2383-1.7507 1.7886-2.4385.5504-.6878 1.6761-1.9008 2.4891-2.6886.8255-.7878 2.0262-1.8382 2.6766-2.3259.6504-.5002 1.6886-1.2255 2.3139-1.6132.6129-.3876 1.8262-1.0629 2.6892-1.5006.863-.4252 2.0638-.9754 2.6892-1.2255.6128-.2501 1.8261-.6502 2.6891-.9003s2.3765-.5878 3.3771-.7628c1.2257-.2126 2.5265-.3377 4.0024-.3877 1.3509-.05 2.7642-.0125 3.6898.075.8255.0876 2.1889.2876 3.0269.4627.8505.1626 2.3389.5627 3.3145.8879.9881.3251 2.6016.9879 3.6022 1.4881s2.339 1.238 4.1276 2.426l.4628-.7128c.2626-.4002.7754-1.088 1.1507-1.5382.3752-.4501 1.0131-1.1629 1.4381-1.6006.426-.4377 1.213-1.1755 1.764-1.6382.55-.4751 1.451-1.1629 2.001-1.5381.55-.3751 1.476-.9128 2.064-1.2005.588-.2751 1.538-.6502 2.126-.8253.688-.2001 1.388-.3126 1.964-.3126zm-3.152 3.4889c-.688.3376-1.676.9504-2.213 1.338-.526.4002-1.364 1.1005-1.877 1.5506-.5.4502-1.313 1.3006-1.801 1.8758s-1.1254 1.4006-1.4131 1.8382l-.5128.7754c1.0129.9128 1.6759 1.5506 2.1389 2.0008.45.4501 1.051 1.0754 1.338 1.413l.526.5878c1.213-.8129 2.063-1.4756 2.676-2.0008.626-.5127 1.539-1.4131 2.051-2.0008.513-.5878 1.189-1.4256 1.501-1.8758.313-.4502.813-1.263 1.101-1.8132.288-.5503.65-1.3881.788-1.8758.15-.4752.263-1.1379.263-1.4631 0-.5002-.063-.6627-.376-.9754-.312-.3126-.475-.3751-.975-.3626-.325 0-.901.0875-1.276.1876-.375.1-1.251.4626-1.939.8003zm-31.2063 3.4389c-.6504.1125-1.726.3376-2.3764.5002-.6504.1625-1.7761.5002-2.5016.7628-.7254.2501-1.9387.7503-2.6891 1.1129-.763.3502-1.9137.9754-2.5641 1.3756-.6504.4001-1.7261 1.1129-2.3765 1.6006s-1.8261 1.5006-2.6141 2.2634c-.7755.7628-1.7511 1.8133-2.1763 2.326-.4128.5127-1.0757 1.413-1.4634 2.0008-.3878.5877-.9756 1.5381-1.2883 2.1258-.3127.5878-.763 1.5131-1.0006 2.0634-.2377.5502-.5754 1.4505-.763 2.0008-.1876.5502-.4753 1.5381-.6379 2.1883-.1626.6503-.3752 1.7508-.4878 2.4385-.1126.6878-.2376 1.9758-.2752 2.8762-.05.9629-.025 2.2884.0626 3.2513.0875.8879.2877 2.3634.4503 3.2513s.5003 2.2884.7504 3.1012c.2377.8004.6129 1.9008.8255 2.4385.2127.5252.6879 1.5507 1.0382 2.2759.3627.7253.938 1.7382 1.2632 2.251.3252.5127.9381 1.388 1.3509 1.9382.4252.5503 1.3883 1.6257 2.1388 2.3885.763.7628 1.9762 1.8258 2.7016 2.3638.7255.525 1.8512 1.288 2.5016 1.663.6504.387 1.7135.938 2.3389 1.238.6379.3 1.9137.788 2.8143 1.088.913.312 2.3639.7 3.2269.875.8631.175 2.0388.375 2.6267.45.5878.063 2.1013.125 3.377.125 1.2758 0 2.7893-.062 3.3771-.125.5879-.075 1.7636-.275 2.6266-.45.8631-.175 2.3265-.563 3.252-.875.9256-.313 2.2514-.838 2.9393-1.163.688-.325 1.7511-.888 2.3765-1.263.6129-.375 1.6635-1.088 2.3139-1.576s1.6385-1.3 2.1764-1.8131c.5378-.5127 1.4379-1.4631 1.9759-2.1133.551-.6503 1.351-1.7257 1.789-2.376s1.126-1.8632 1.538-2.6886c.413-.8253.976-2.1508 1.276-2.9387.288-.7878.676-2.0508.876-2.8136s.475-2.1384.613-3.0637c.137-.9254.287-2.3885.337-3.2513.05-.9129.025-2.2134-.062-3.1263-.075-.8628-.288-2.2634-.463-3.1262-.163-.8629-.563-2.326-.876-3.2514-.312-.9253-.863-2.3009-1.225-3.0637-.363-.7628-.976-1.8883-1.364-2.501-.375-.6127-.775-1.2255-.863-1.363-.162-.2251-.187-.2251-.975.0375-.451.1375-1.026.3001-1.289.3501l-.4749.1001c.8509 1.1629 1.3629 1.9507 1.7009 2.501.338.5502.851 1.5381 1.163 2.1883.301.6503.776 1.8383 1.038 2.6261.263.7878.588 2.0008.726 2.6886.137.6878.325 1.8382.4 2.5635.088.7753.113 2.0758.075 3.1888-.037 1.0379-.162 2.4135-.275 3.0637-.1.6503-.363 1.8383-.575 2.6261-.213.7878-.588 1.9508-.826 2.5635-.25.6128-.738 1.7132-1.101 2.4385-.362.7253-1.113 1.9883-1.663 2.8136-.5504.8254-1.4759 2.0383-2.0638 2.6886-.5753.6503-1.4884 1.5756-2.0388 2.0508-.5378.4752-1.3758 1.163-1.8636 1.5131-.4878.35-1.3008.9-1.8136 1.226-.5128.312-1.4759.825-2.1263 1.137-.6504.313-1.8637.788-2.6892 1.063-.8255.276-2.0637.613-2.7517.751-.6879.137-1.8011.312-2.4765.375-.6629.075-1.7886.137-2.5015.137-.7005 0-1.8637-.062-2.5891-.125-.7255-.075-1.9637-.262-2.7517-.425-.788-.162-2.0638-.5-2.8142-.763-.763-.25-2.0013-.75-2.7517-1.113-.763-.362-1.8262-.937-2.3765-1.275s-1.4759-.988-2.0638-1.4256c-.5878-.4502-1.5384-1.263-2.1138-1.8133-.5753-.5502-1.4259-1.4505-1.8886-2.0008-.4628-.5502-1.2258-1.5631-1.6886-2.2509s-1.1882-1.9883-1.626-2.8761c-.4377-.8879-1.0131-2.2384-1.2633-3.0012-.2501-.7628-.5878-2.0259-.7504-2.8137s-.3502-2.0258-.4253-2.7511c-.0625-.7253-.1251-1.8882-.1251-2.5885 0-.7128.0626-1.8383.1376-2.501.0626-.6753.2377-1.7882.3753-2.476.1375-.6878.4753-1.9258.7504-2.7511.2752-.8254.763-2.0634 1.1007-2.7511.3252-.6878.888-1.7257 1.2508-2.3135.3627-.5877 1.0131-1.5131 1.4509-2.0633.4252-.5502 1.1632-1.4131 1.6385-1.9258s1.3633-1.3505 1.9887-1.8632c.6129-.5252 1.7135-1.3381 2.439-1.8133.7254-.4751 1.9012-1.1629 2.6266-1.5256.7255-.3626 1.8136-.8503 2.439-1.1004.6129-.2376 1.7761-.6128 2.5641-.8253.788-.2126 1.9762-.4752 2.6266-.5753.6504-.1125 2.0263-.2376 3.0644-.2751 1.1257-.0375 2.4265-.0125 3.252.075.7505.0876 2.0262.3002 2.8142.4752.788.1751 2.0013.5127 2.6892.7503s1.8636.7253 2.6266 1.1005c.7505.3626 2.0262 1.0879 2.8142 1.6131l1.4384.9504c1.4009 0 2.0012.0875 2.364.2126.3377.125.9005.4752 1.2382.7878s.7005.7128.788.9129c.1501.3001.2252.3251.6377.2751.263-.0375.513-.1.576-.1626.05-.05-.488-.6752-1.1887-1.413-.7129-.7253-1.8511-1.7633-2.539-2.301-.688-.5502-1.7886-1.3255-2.439-1.7382-.6504-.4126-1.8637-1.0754-2.6892-1.4631-.8255-.4001-2.0888-.9128-2.8142-1.1504-.7255-.2376-1.9637-.5878-2.7517-.7628-.788-.1751-1.9137-.3752-2.5016-.4502-.5878-.0625-1.8261-.1501-2.7516-.1751-.9256-.0375-2.2264-.0125-2.8768.05-.6504.0626-1.7261.2001-2.3765.3127zm-.5003 5.1395c-.788.1876-1.9137.5002-2.5015.7003-.5879.2001-1.626.6378-2.3139.9629-.688.3251-1.7261.8879-2.314 1.2505-.5878.3627-1.5134 1.0129-2.0637 1.4506-.5504.4252-1.4509 1.213-2.0013 1.7632-.5503.5377-1.3133 1.3881-1.701 1.8633-.3878.4751-1.0257 1.3505-1.4009 1.9382-.3877.5878-.9756 1.6507-1.3258 2.376-.3377.7253-.8005 1.8257-1.0006 2.4385-.2126.6127-.4878 1.6631-.6254 2.3134s-.3127 1.7007-.3877 2.3134c-.0626.6128-.1251 1.6632-.1251 2.3135 0 .6502.0625 1.7757.1251 2.501.075.7253.2501 1.8507.4002 2.501.1376.6502.4128 1.7007.6129 2.3134.2001.6128.7254 1.8633 1.1632 2.7511.4378.8879 1.1257 2.1134 1.5384 2.7136.4003.6002 1.1758 1.6132 1.7261 2.2509.5503.6378 1.5009 1.6007 2.1263 2.1384.6129.5377 1.576 1.2755 2.1263 1.6506.5504.3627 1.5385.9504 2.1889 1.3006.6504.3501 1.6885.8251 2.3139 1.0751.6129.238 1.626.576 2.2514.751.6129.162 1.626.387 2.2514.5.6128.112 1.9387.225 2.9393.275 1.0756.037 2.3389.012 3.1269-.075.7254-.075 1.8136-.25 2.439-.388.6129-.125 1.6635-.412 2.3139-.625s1.7761-.675 2.5016-1.013c.7254-.35 1.7886-.9378 2.3764-1.3255.5879-.3751 1.4509-1.0129 1.9387-1.4005.4878-.3877 1.3258-1.1505 1.8637-1.7007.5503-.5502 1.3383-1.4506 1.7635-2.0008.4378-.5502 1.0632-1.4506 1.4134-2.0008.3377-.5503.838-1.4506 1.113-2.0008.275-.5503.713-1.5507.963-2.2259.25-.6628.588-1.7883.763-2.501.175-.7003.401-1.9133.501-2.6886.1-.7628.187-2.0133.187-2.7761s-.087-2.0133-.187-2.7887c-.1-.7628-.326-1.9632-.501-2.651-.187-.6878-.525-1.7632-.763-2.376-.237-.6127-.713-1.6506-1.063-2.2884-.3376-.6253-.8254-1.4631-1.088-1.8382-.2502-.3877-.4878-.6753-.5254-.6503-.0375.0125-.3502.1751-.6879.3376-.3752.1751-.9506.3127-1.4384.3502-.6379.0375-.9756-.0125-1.5634-.2376-.5003-.1876-.9756-.5002-1.4134-.9129-.3877-.3751-.763-.9004-.9256-1.263-.1876-.4627-.2626-.8754-.2501-1.5631 0-.7628.075-1.0755.3627-1.6507l.3502-.7253c-1.0131-.6753-1.8386-1.1504-2.4765-1.4881-.6254-.3501-1.6635-.8253-2.2764-1.0629-.6254-.2376-1.6885-.5752-2.3765-.7628-.6879-.1751-1.8886-.4002-2.6641-.5002-.763-.1001-2.0888-.1751-2.9393-.1751-.838.0125-1.9512.075-2.464.1251-.5128.0625-1.5885.2626-2.3765.4376zm19.5871 4.9895c-.1001.1376-.1877.3877-.2002.5628-.0125.175-.025.4376-.0125.5877.0125.1626.1626.4627.3502.6753.2377.2626.5129.4001.8506.4502.3627.05.6128.0125.913-.1626.2252-.1251.4878-.4252.5879-.6503.1001-.2126.1876-.5127.1876-.6502 0-.1376-.0875-.4127-.1876-.6253s-.3127-.4627-.4753-.5627c-.1501-.1-.5003-.1876-.7755-.1876-.2751.0125-.6254.075-.7755.1626-.1626.0875-.3627.2751-.4627.4001z"/><path d="m95.2825 81.3155.3001.3502c.2127.2376.3002.4877.3002.8378 0 .3502-.0875.6003-.3002.8504-.3001.3376-.3127.3376-3.9524.4001v2.501h1.0006c.5504 0 1.1507.0751 1.3258.1626.1877.075.4128.3001.5003.5002.1001.1876.1752.4502.1752.5877 0 .1376-.0751.4002-.1752.6003-.0875.1876-.3126.4126-.5003.5002-.1751.075-.7754.15-2.3264.15v2.501l1.8261.0376c1.8136.025 1.8262.025 2.1263.3751.2127.2376.3002.4877.3002.8378 0 .3502-.0875.6003-.6003 1.188h-5.5535l-.6003-.6877v-5.4773c0-4.8144.025-5.5022.2001-5.7523.1126-.1625.3252-.3376.4753-.4001.1376-.0626 1.4384-.1001 5.4784-.0626zm-8.13 0 .3001.3377c.2127.2501.3002.5002.3002.8503 0 .3502-.0875.6003-.3002.8379-.3001.3501-.3127.3501-3.9524.4126v2.501h1.0006c.5504 0 1.1507.0751 1.3258.1501.1877.0875.4128.3126.5003.5002.1001.2001.1752.4627.1752.6002 0 .1376-.0751.4002-.1752.5878-.0875.2001-.3126.4251-.5003.5002-.1751.0875-.7754.1625-2.3264.1625v2.501l1.8261.0251c1.8136.0375 1.8262.0375 2.1263.3751.2127.2501.3002.5002.3002.8503 0 .3502-.0875.6003-.6003 1.188l-2.5766.025c-2.0888.0376-2.6517 0-2.9518-.15-.2002-.1001-.4253-.3001-.5004-.4377-.075-.1501-.125-2.3009-.125-5.6648 0-4.7394.025-5.4397.2001-5.6898.1126-.1625.3252-.3376.4628-.4001.1501-.0626 1.4509-.1001 5.4909-.0626zm-12.3451-.05c1.1632-.0125 1.8136.0375 2.3139.1876.5253.1626.8505.3752 1.3883.9129.4753.4752.763.9003.9006 1.3255.1251.3376.2126.9879.2126 1.4381 0 .5877-.0875.9879-.2877 1.4381-.1626.3501-.5878.8878-1.5884 1.8132l.938 1.8757c.6254 1.2631.9381 2.0134.9381 2.3135 0 .2876-.1.5627-.3002.7753-.2501.2876-.4127.3501-.863.3501-.3502 0-.6504-.075-.788-.2126-.1376-.1125-.7379-1.2255-1.3633-2.4635-.9631-1.9382-1.1632-2.2634-1.4009-2.2634-.2877 0-.2877 0-.2877 2.1259 0 2.0633-.0125 2.1384-.3001 2.4635-.2502.2876-.4128.3501-.8881.3501s-.6379-.0625-1.1882-.6877v-5.4773c0-4.8144.025-5.5022.2001-5.7523.1126-.1625.3252-.3376.4753-.4001.1376-.0626 1.0006-.1126 1.8887-.1126zm-.0501 3.5389c0 .5878-.05 1.163-.1 1.2881-.0876.175 0 .2.8755.15.8881-.05 1.0131-.0875 1.2883-.4001.2126-.2376.3002-.4877.3002-.8379 0-.3501-.0876-.6002-.3002-.8503-.2627-.3001-.4128-.3376-1.1757-.3877l-.8756-.0375zm-4.4902-3.4889.3002.3377c.2126.2501.3001.5002.3001.8503 0 .3502-.0875.6003-.3001.8379-.3002.3501-.3127.3501-3.9525.4126v2.501h1.0006c.5504 0 1.1507.0626 1.3259.1501.1876.0875.4127.3126.5003.5002.1.1876.1751.4627.1751.6002 0 .1376-.0751.4002-.1751.5878-.0876.1875-.3127.4126-.5003.5002-.1752.0875-.7755.1625-2.3265.1625v1.7758c0 .9879-.05 1.9883-.1125 2.2258-.0751.2376-.2502.5503-.3878.6878-.1876.1751-.4503.2501-.838.2501-.4503 0-.6129-.0625-1.1632-.6877v-5.4773c0-4.8269.025-5.5022.2001-5.7523.1126-.1625.3252-.3501.4753-.4126.1501-.0501 1.4384-.0876 5.4784-.0501zm15.3344-15.0685c.1501 0 .4378.075.6254.1625.2626.1376.4753.4752.9005 1.4506.3127.7128.6129 1.288.6755 1.3006.0625.0125.3627-.5628.6879-1.2756.4377-.9879.6629-1.338.9255-1.4756.1877-.0875.4503-.1625.5879-.1625s.4128.075.6004.1751c.1876.0875.4127.3126.5003.5002.0875.175.1501.4376.1501.5752 0 .1375-.4503 1.2755-1.0006 2.526-.5379 1.263-.9881 2.376-.9881 2.476s.4502 1.213.9881 2.4635c.5503 1.263 1.0006 2.401 1.0006 2.5385 0 .1376-.0626.4002-.1501.5752-.0876.1751-.3127.4002-.5003.5002-.1876.1001-.4628.1751-.6004.1751s-.4002-.075-.5879-.1751c-.2626-.125-.4878-.4751-.913-1.4255-.3127-.7003-.6129-1.288-.6629-1.3006-.0626-.025-.3753.5503-.6879 1.2631-.4503.9879-.663 1.338-.9256 1.463-.1876.1001-.4628.1751-.6004.1751s-.4002-.075-.5878-.1751c-.1877-.1-.4128-.3251-.5004-.5002-.0875-.175-.1626-.4376-.1626-.5752 0-.1375.4503-1.2755 1.0007-2.5385.5503-1.2505 1.0006-2.3635 1.0006-2.4635s-.4503-1.213-1.0006-2.476c-.5504-1.2505-1.0007-2.401-.9881-2.5635 0-.1501.0875-.4127.1876-.5753.1125-.1625.3252-.3751.4753-.4626.1375-.0876.3877-.1751.5503-.1751zm-6.1663.0375c.4253.025 1.0507.1876 1.4259.3501.4378.1876.8755.5252 1.2382.9254.3378.3877.6129.8629.7255 1.2505.1376.4877.1751 1.5381.1751 4.8395 0 2.5635-.05 4.3267-.1251 4.4768-.0625.1375-.2877.3376-.5003.4376-.2001.1001-.5128.1876-.6879.1876s-.4878-.1626-1.1257-.7253l-.0625-3.0262h-2.5016v1.4381c0 .7878-.05 1.5506-.1251 1.6882-.0625.1375-.2876.3376-.5003.4376-.2001.1001-.5128.1876-.6879.1876s-.4878-.1626-1.1257-.7253l-.025-4.1141c-.0375-3.3889 0-4.2392.1501-4.852.1126-.4127.3377-.9629.5128-1.2255.1626-.2501.5128-.6252.763-.8128.2501-.1876.7504-.4377 1.1007-.5627.4252-.1501.863-.2001 1.3758-.1751zm-1.3633 3.2013-.0751 3.0137h2.5016c0-2.2259-.0501-2.9887-.1251-3.1263-.0626-.1375-.2877-.3376-.5003-.4376-.2001-.1001-.5128-.1876-.6879-.1876-.1626 0-.4878.1626-.713.3751zm-7.1669-3.2388c1.8511-.0125 2.5515.0375 2.8142.1625.1876.1001.4127.3252.5003.5002.0876.1751.1501.4377.1501.5753 0 .1375-.0625.4001-.1501.5752-.0876.1876-.3127.4127-.5003.5002-.1876.1001-.6004.1751-1.4759.1751v4.2892c0 2.351-.05 4.4768-.1126 4.7144-.0625.2376-.2376.5502-.3877.6878-.1876.1751-.4503.2501-.838.2501-.4503 0-.6129-.0625-1.1633-.6878v-3.4639c0-1.9133-.0375-3.9891-.1876-5.7898h-.5253c-.3002 0-.6754-.0625-.863-.1501-.1751-.0875-.4003-.3126-.5003-.5002-.0876-.1876-.1751-.4752-.1626-.6252 0-.1626.0875-.4252.2001-.5878.1001-.1625.3127-.3751.4628-.4627.2001-.125.913-.1625 2.7392-.1625z"/></g></g></svg>